<?xml version="1.0" encoding="UTF-8" standalone="no"?>
<svg
   xmlns:dc="http://purl.org/dc/elements/1.1/"
   xmlns:cc="http://creativecommons.org/ns#"
   xmlns:rdf="http://www.w3.org/1999/02/22-rdf-syntax-ns#"
   xmlns:svg="http://www.w3.org/2000/svg"
   xmlns="http://www.w3.org/2000/svg"
   xmlns:sodipodi="http://sodipodi.sourceforge.net/DTD/sodipodi-0.dtd"
   xmlns:inkscape="http://www.inkscape.org/namespaces/inkscape"
   width="785.25"
   height="612.3125"
   id="svg2"
   version="1.1"
   inkscape:version="0.48.2 r9819"
   sodipodi:docname="Flag-map_of_Ethiopia.svg">
  <metadata
     id="metadata18">
    <rdf:RDF>
      <cc:Work
         rdf:about="">
        <dc:format>image/svg+xml</dc:format>
        <dc:type
           rdf:resource="http://purl.org/dc/dcmitype/StillImage" />
      </cc:Work>
    </rdf:RDF>
  </metadata>
  <defs
     id="defs16">
    <inkscape:perspective
       sodipodi:type="inkscape:persp3d"
       inkscape:vp_x="0 : 300 : 1"
       inkscape:vp_y="0 : 1000 : 0"
       inkscape:vp_z="1200 : 300 : 1"
       inkscape:persp3d-origin="600 : 200 : 1"
       id="perspective20" />
    <inkscape:perspective
       id="perspective3658"
       inkscape:persp3d-origin="0.5 : 0.33333333 : 1"
       inkscape:vp_z="1 : 0.5 : 1"
       inkscape:vp_y="0 : 1000 : 0"
       inkscape:vp_x="0 : 0.5 : 1"
       sodipodi:type="inkscape:persp3d" />
    <inkscape:perspective
       id="perspective2827"
       inkscape:persp3d-origin="0.5 : 0.33333333 : 1"
       inkscape:vp_z="1 : 0.5 : 1"
       inkscape:vp_y="0 : 1000 : 0"
       inkscape:vp_x="0 : 0.5 : 1"
       sodipodi:type="inkscape:persp3d" />
    <inkscape:perspective
       id="perspective2840"
       inkscape:persp3d-origin="0.5 : 0.33333333 : 1"
       inkscape:vp_z="1 : 0.5 : 1"
       inkscape:vp_y="0 : 1000 : 0"
       inkscape:vp_x="0 : 0.5 : 1"
       sodipodi:type="inkscape:persp3d" />
    <inkscape:perspective
       id="perspective2853"
       inkscape:persp3d-origin="0.5 : 0.33333333 : 1"
       inkscape:vp_z="1 : 0.5 : 1"
       inkscape:vp_y="0 : 1000 : 0"
       inkscape:vp_x="0 : 0.5 : 1"
       sodipodi:type="inkscape:persp3d" />
    <inkscape:perspective
       id="perspective2866"
       inkscape:persp3d-origin="0.5 : 0.33333333 : 1"
       inkscape:vp_z="1 : 0.5 : 1"
       inkscape:vp_y="0 : 1000 : 0"
       inkscape:vp_x="0 : 0.5 : 1"
       sodipodi:type="inkscape:persp3d" />
  </defs>
  <sodipodi:namedview
     pagecolor="#ffffff"
     bordercolor="#666666"
     borderopacity="1"
     objecttolerance="10"
     gridtolerance="10"
     guidetolerance="10"
     inkscape:pageopacity="0"
     inkscape:pageshadow="2"
     inkscape:window-width="1400"
     inkscape:window-height="988"
     id="namedview14"
     showgrid="false"
     inkscape:zoom="1"
     inkscape:cx="477.70782"
     inkscape:cy="344.28402"
     inkscape:window-x="-8"
     inkscape:window-y="-8"
     inkscape:window-maximized="1"
     inkscape:current-layer="svg2" />
  <path
     style="fill:#da121a"
     d="m 50.8437,399.75 2.03125,2.15625 c 0,0 0.4375,4.73456 0.4375,6.375 0,1.64046 6.2771,6.49735 8.0625,6.46875 1.6718,-0.0268 0.68655,4.86262 4.90625,8.84375 3.1539,2.97558 7.5817,1.65436 9.3125,2.3125 1.5152,0.57619 3.5321,8.26579 3.9375,9.90625 0.4053,1.64045 6.90625,1.09375 6.90625,1.09375 0,0 6.90625,6.3599 6.90625,11.28125 0,4.92133 3.7647,4.66904 3.625,12.125 -0.0744,3.98016 3.0947,6.26195 3.5,8.3125 0.4053,2.05054 3.0535,3.34902 3.4375,6.96875 l -0.0625,6.71875 c 0.7129,3.18098 3.21875,4.6875 3.21875,4.6875 2.6873,2.41319 2.72775,8.0219 5.28125,10.09375 3.4244,2.77861 7.3125,3.96875 7.3125,3.96875 0,1.64541 -0.125,4.78125 -0.125,4.78125 -0.0116,0.0232 1.1222,4.66579 3.125,4.3125 1.6468,-0.2905 3.72065,-1.9845 4.53125,-3.625 0.8106,-1.64058 6.3125,-0.28125 6.3125,-0.28125 0,0 0.0756,1.39949 1.46875,1.8125 1.3931,0.41302 4.1544,-1.12783 6.0625,-0.40625 1.9082,0.72157 3.88575,1.5799 5.28125,2.71875 1.545,1.261 0.009,2.72468 0.3125,3.75 1.2157,4.10138 0.425,7.77264 -0.1875,8.75 -1.8584,2.96464 -0.21875,8.64094 -0.21875,10.28125 0,0.8202 -0.42255,4.76827 -0.0937,6.34375 0.3288,1.57549 1.5733,1.29559 2.1875,2.15625 1.2139,1.70171 3.09565,4.01585 3.90625,5.65625 0.8105,1.64049 1.59565,4.07845 2.40625,5.71875 0.8106,1.6405 4.1111,5.0288 9.125,4.3125 0,0 29.8958,0.31478 38.3125,0.625 7.8677,0.29004 8.1006,6.15625 10.9375,6.15625 2.837,0 34.0625,21.625 34.0625,21.625 l 19,14.375 15.9375,1.9375 c 0,0 12.87904,-1.22654 14.5,-0.40625 1.62113,0.82021 6.375,4.09375 6.375,4.09375 0,0 4.76545,0.5 11.25,0.5 6.48428,0 8.71875,2.15625 8.71875,2.15625 0,0 7.60864,0.29243 11.21875,0.8125 4.26158,0.61397 10.46875,3.09375 10.46875,3.09375 C 344.0197,607.09395 348.75,604.5 348.75,604.5 c 6.34417,-3.78605 8.81995,-7.62646 10.96875,-15.8125 l 13.03125,-6.34375 11,-5.53125 11.90625,-5.09375 11.71875,-5.4375 c 0,0 3.73684,1.96454 5.53125,3.65625 1.79431,1.6917 0.18944,4.3159 2.71875,4.25 4.21084,-0.10973 6.0916,4.1347 8,6.09375 2.04665,2.10102 2.72396,3.03677 6.09375,3.34375 2.8251,0.25735 22.78622,-0.65625 24.8125,-0.65625 2.02638,0 7.31829,2.8712 9.75,3.28125 2.43171,0.41015 4.44136,-7.35969 6.0625,-9 1.62114,-1.6404 8.91112,-4.9298 10.9375,-5.75 2.02637,-0.82011 10.53125,0 10.53125,0 l 8.53125,-1.65625 16.21875,-1.625 c 0,0 3.21875,-4.51576 3.21875,-6.15625 0,-1.6404 7.31443,-9.4221 8.125,-11.0625 0.81048,-1.64049 18.21875,-10.65625 18.21875,-10.65625 l 19.0625,-4.9375 c 0,0 13.78511,-1.21485 15.40625,-1.625 1.62086,-0.4101 12.56646,-0.4375 14.1875,-0.4375 1.62105,0 31.59375,2.875 31.59375,2.875 L 757.2187,399.75 l -706.375,0 z"
     id="rect4" />
  <path
     style="fill:#fcdd09"
     d="m 104.81245,196.09375 c 0.28976,1.68967 0.1875,3.6875 0.1875,3.6875 L 100.9687,210.25 c 0,0 0.66525,1.58992 2.40625,4.53125 -0.9323,1.66668 -4.6912,7.5509 -6.3125,8.78125 -1.6209,1.23035 -3.65625,1.15625 -3.65625,1.15625 0,0 -7.81555,-9.1322 -10.09375,-9.1875 -3.2126,-0.078 -8.2274,6.15919 -9.5,7.78125 -1.2727,1.62206 -3.875,6.5625 -3.875,6.5625 0,0 -0.8125,6.13693 -0.8125,8.1875 0,2.05057 0.2319,9.71853 0.625,12.34375 0.4065,2.71431 -2.09375,7.3125 -2.09375,7.3125 L 64.2187,260.75 c 0,0 -0.31565,3.14578 -0.78125,4.71875 -0.713,2.40828 -5.60415,14.12433 -5.96875,16.3125 -0.2742,1.64534 -0.31235,8.52705 -0.0937,10.34375 0.4818,3.9988 0.46875,10.35954 0.46875,12 0,1.64046 0.37615,8.60953 0.78125,10.25 0.4053,1.64045 -0.21875,14.35956 -0.21875,16 0,1.64046 0.9907,5.98501 -0.5625,8.875 -1.6453,3.06154 -6.5,6.40625 -6.5,6.40625 l -9.28125,1 -3.75,0.90625 L 32.25,346.75 c 0,0 -10.13155,-0.80864 -12.96875,-1.21875 -2.837,-0.41013 -5.004,-1.04285 -6.625,0.1875 -1.62135,1.23035 -4.25095,4.35954 -4.65625,6 -0.4058,1.64047 0.4666,9.04703 -0.3438,10.6875 -0.8105,1.64045 -3.1289,3.45716 -4.75,4.6875 C 1.2852,368.3241 0,371.94555 0,374.40625 c 0,2.46068 0.6472,3.76184 1.875,4.90625 1.8243,1.70025 4.875,1.71875 4.875,1.71875 l 6.3125,1.4375 5.125,2.40625 12.84375,0.84375 8.5,5.34375 7.71875,4.90625 5.625,5.9375 c 0,0 0.4375,4.73456 0.4375,6.375 0,0.79052 1.44603,2.34103 3.15625,3.71875 L 745.5,412 785.25,370.53125 732.5625,370.125 643.40625,339.78125 575.3125,316.40625 c 0,0 -16.62693,-14.76578 -17.4375,-16.40625 -0.81038,-1.64045 -7.6875,-2.0625 -7.6875,-2.0625 l -5.28125,-10.25 -6.875,-8.59375 -10.125,-10.65625 c 0,0 -1.21875,-4.51579 -1.21875,-6.15625 0,-1.64048 -7.3125,-6.96875 -7.3125,-6.96875 0,0 -4.84752,-5.75806 -6.46875,-8.21875 -1.62096,-2.46069 0.40625,-5.75 0.40625,-5.75 l -4.0625,-7.78125 0.40625,-6.15625 c 0,0 4.06636,-7.86725 5.6875,-8.6875 0.40524,-0.20505 1.22057,-2.73702 1.0625,-3.40625 1.04662,-0.4502 3.48236,-0.60847 4.21875,-1.5625 0.24355,-1.06353 0.20445,-4.40205 -0.15625,-4.96875 -0.36069,-0.5665 -6.75,-0.0312 -6.75,-0.0312 l -1.6875,-4.15625 -4.8125,0.25 c 0,0 -5.70563,-1.36256 -7.25,0.25 -1.64883,1.7217 -5.19145,3.40625 -6.8125,3.40625 -0.81057,0 -10.27813,0.0555 -13.9375,0.0625 -2.46939,1.04803 -4.21212,2.2581 -5.34375,3.34375 -3.27487,-0.0827 -12.28125,-2.03125 -12.28125,-2.03125 0,0 0.1875,-2.54705 0.1875,-4.1875 0,-1.454 -0.11779,-6.78429 -0.28125,-9.59375 l -356.6875,0 z"
     id="rect6" />
  <path
     style="fill:#078930"
     d="m 257.0937,0 c 0,0 -8.1692,17.62616 -8.5625,19.21875 -0.4052,1.64047 -8.0628,20.48482 -9.125,21.90625 -1.0115,1.35362 -7.10595,-7.35708 -7.96875,-10.125 -0.4051,-1.29947 -4.3125,-7.03125 -4.3125,-7.03125 l -8.59375,-0.9375 c 0,0 -3.6631,0.51552 -4.375,2.375 -0.5864,1.53203 0.2914,5.43591 -1.625,6.75 0,0 -6.06185,0.17465 -6.71875,-2.125 l -19.15625,0.53125 -2.4375,10.25 c 0,0 -1.625,6.98454 -1.625,8.625 0,1.64046 1.21875,5.30896 1.21875,9 0,3.69102 -1.625,4.10953 -1.625,5.75 0,1.64045 -2.8162,4.93364 -4.4375,5.34375 -1.6209,0.41013 -4.47065,9.41044 -5.28125,12.28125 -0.8107,2.87078 -4.46875,9.03125 -4.46875,9.03125 0,0 -2.40625,10.66817 -2.40625,12.71875 0,2.05057 1.59375,7.39078 1.59375,9.03125 0,1.64046 -0.40625,5.3125 -0.40625,5.3125 0,0 -5.2538,-1.21875 -6.875,-1.21875 l -15.8125,0 c 0,0 -17.00085,23.35954 -17.40625,25 -0.4054,1.64046 -5.6895,13.95329 -6.5,15.59375 -0.8106,1.64046 -11.75,4.92235 -11.75,9.84375 0,4.92137 2.84575,8.60567 3.65625,10.65625 0.8105,2.05057 -2.84375,4.92205 -2.84375,6.5625 0,1.64048 -5.6856,8.60956 -4.875,10.25 0.8105,1.64047 0.625,5.1875 0.625,5.1875 l -3.125,8.125 359.84375,0 c 0.037,-0.73651 0.0625,-1.54952 0.0625,-2.21875 0,-1.64047 -0.14659,-8.41792 -0.34375,-10.6875 -0.18085,-2.08242 -0.40625,-7.5 -0.40625,-7.5 0,0 0.75082,-15.04704 1.15625,-16.6875 0.40514,-1.64046 6.125,-4.90625 6.125,-4.90625 0,0 9.78419,-13.92203 11,-15.5625 1.2158,-1.64046 5.62812,-7.82443 6.84375,-9.875 1.2159,-2.05058 6.46875,-10.25 6.46875,-10.25 l -1.1875,-2.46875 c 0,0 -5.44053,-6.75806 -6.65625,-9.21875 -1.21581,-2.4607 -5.81636,-6.99613 -7.4375,-7.40625 -1.62114,-0.41011 -9.03226,-3.4533 -9.4375,-5.09375 -0.40533,-1.64047 -5.65808,-13.13693 -6.46875,-15.1875 -0.81038,-2.05056 -14.59954,-11.89079 -17.03125,-13.53125 -2.4318,-1.64046 -12.56829,-8.6018 -15,-11.0625 -2.43161,-2.46069 -8.85092,-16.28181 -11,-18.0625 -2.06814,-3.55783 -9.39562,-9.9602 -11.75,-10.5625 0,0 -9.31527,-1.84002 -11.84375,-2.8125 C 393.38884,34.26496 380.7812,24.40625 380.7812,24.40625 l -6.875,-3.6875 -11.78125,1.625 -6.875,-2.84375 -4.25,0.25 c 0,0 -4.70852,-0.62816 -7.5,-4.28125 -5.03686,3.08157 -12.1602,5.25 -13.78125,5.25 -0.81057,0 -2.53848,3.36412 -3.90625,2.03125 -1.36777,-1.33287 -2.39104,-7.36728 -2.59375,-8.1875 -0.40533,-1.64048 -6.21875,-2.59375 -6.21875,-2.59375 -2.08064,0 -2.25111,2.23452 -2.65625,3.875 -0.40524,1.64045 -12.83373,6.83196 -14.40625,6.4375 -3.37415,-0.84639 -7.72765,1.87988 -10.34375,2.125 -5.6638,0.53067 -8.9375,-4.9375 -8.9375,-4.9375 0,0 -4.75105,-7.67203 -5.15625,-9.3125 -0.4053,-1.64048 -4.3125,-0.21875 -4.3125,-0.21875 0,0 -8.34575,-2.3557 -9.15625,-4.40625 C 261.2206,3.48067 257.0937,0 257.0937,0 z m 245.84375,204.3125 c -1.22917,-0.003 -2.38961,0.17654 -2.96875,0.78125 -1.05151,1.09799 -2.89765,2.17202 -4.5,2.8125 l 17.90625,0 -1.34375,-3.3125 -4.8125,0.25 c 0,0 -2.23264,-0.52575 -4.28125,-0.53125 z"
     id="rect8" />
</svg>
